# xmcd
#
# Track frame offsets:
#	180
#	10232
#	18522
#	26745
#	38155
#	48837
#	58297
#	68865
#	79147
#	90662
#	100695
#	110527
#	119657
#	129450
#	139640
#	148635
#	160447
#	172895
#	183475
#	197377
#	206700
#	216690
#	228692
#	240697
#	251310
#	261792
#	274325
#	283885
#	294845
#	304810
#
# Disc length: 4217 seconds
#
# Revision: 0
# Processed by: cddbd v1.5.1PL0 Copyright (c) Steve Scherf et al.
# Submitted via: audiograbber 1.83.01
#
DISCID=c410771e
DTITLE=Benny Barnes - The Rockin' Honky Tonk Country Man
DYEAR=1900
DGENRE=Country
TTITLE0=Go on, go on
TTITLE1=Pretty little girl
TTITLE2=That-a-boy while
TTITLE3=Moon over my shoulder
TTITLE4=You gotta pay
TTITLE5=Lonely street
TTITLE6=Mine, all mine
TTITLE7=Poor old me
TTITLE8=Happy little bluebird
TTITLE9=I changed my mind
TTITLE10=It's good to be home
TTITLE11=Gee, I feel sorry for me
TTITLE12=Penalty
TTITLE13=Heads you win
TTITLE14=Message in the wind
TTITLE15=I'll think I'll take a walk
TTITLE16=King for a day
TTITLE17=Yearning
TTITLE18=How blue car can you get
TTITLE19=Gold records in the snow
TTITLE20=You're still on my mind
TTITLE21=Fastest gun alive
TTITLE22=Your old standby
TTITLE23=Beggar to a king
TTITLE24=Nickel's worth of dreams
TTITLE25=No fault of mine
TTITLE26=Poor man's riches
TTITLE27=I walk the line
TTITLE28=Train of love
TTITLE29=There you go
EXTD=
EXTT0=
EXTT1=
EXTT2=
EXTT3=
EXTT4=
EXTT5=
EXTT6=
EXTT7=
EXTT8=
EXTT9=
EXTT10=
EXTT11=
EXTT12=
EXTT13=
EXTT14=
EXTT15=
EXTT16=
EXTT17=
EXTT18=
EXTT19=
EXTT20=
EXTT21=
EXTT22=
EXTT23=
EXTT24=
EXTT25=
EXTT26=
EXTT27=
EXTT28=
EXTT29=
PLAYORDER=
